<svg id="Layer_1" data-name="Layer 1" xmlns="http://www.w3.org/2000/svg" viewBox="0 0 339.92 181.73"><defs><style>.cls-1{fill:#207e88;}.cls-2{fill:#fff;}.cls-3{fill:#fe2b8c;}</style></defs><rect class="cls-1" x="-130.04" y="-109.13" width="600" height="400"/><path class="cls-2" d="M147.26,125.16a4.36,4.36,0,0,0-1.21,3,4.29,4.29,0,0,0,1.23,2.82,3.81,3.81,0,0,0,2.87,1.19h3.61a8.38,8.38,0,0,1,3.36.71,9.58,9.58,0,0,1,4.92,4.87,8.9,8.9,0,0,1,.05,7.13,9.41,9.41,0,0,1-1.93,2.87,9,9,0,0,1-2.86,2,9.6,9.6,0,0,1-3.54.77h-9.4a2.39,2.39,0,0,1-2.52-2.53,2.49,2.49,0,0,1,2.52-2.47h9.4a4.15,4.15,0,0,0,2.89-1.21,4.63,4.63,0,0,0,.92-1.31,3.71,3.71,0,0,0,.34-1.58,3.85,3.85,0,0,0-.34-1.64,5,5,0,0,0-.89-1.31,4.05,4.05,0,0,0-1.31-.89,5.07,5.07,0,0,0-1.56-.37h-3.66a9.52,9.52,0,0,1-3.44-.74,9.39,9.39,0,0,1-2.91-1.9,9,9,0,0,1-2-2.87,8.77,8.77,0,0,1-.74-3.59,8.51,8.51,0,0,1,.72-3.43,9.78,9.78,0,0,1,1.95-3,9.44,9.44,0,0,1,2.89-2,8.38,8.38,0,0,1,3.54-.77h9.4a2.2,2.2,0,0,1,1.68.77,3.14,3.14,0,0,1,.79,1.86,2.5,2.5,0,0,1-.74,1.72,2.32,2.32,0,0,1-1.73.7h-9.4A3.81,3.81,0,0,0,147.26,125.16Z"/><path class="cls-2" d="M177.1,127.06a11,11,0,0,1,4.58,1,12.45,12.45,0,0,1,6.38,6.4,11.81,11.81,0,0,1,0,9.28,12.41,12.41,0,0,1-2.55,3.78,11.83,11.83,0,0,1-3.78,2.57,11.67,11.67,0,0,1-4.7.94,12.22,12.22,0,0,1-4.65-.89,11.52,11.52,0,0,1-3.8-2.5,11.75,11.75,0,0,1-3.52-8.53,11.65,11.65,0,0,1,.92-4.62,11.49,11.49,0,0,1,2.55-3.76,12.45,12.45,0,0,1,3.83-2.57A12.82,12.82,0,0,1,177.1,127.06Zm0,4.9a7.12,7.12,0,0,0-5,2,7.47,7.47,0,0,0-1.53,2.25,7.09,7.09,0,0,0,0,5.57,7.71,7.71,0,0,0,1.53,2.3,7,7,0,0,0,2.28,1.55,6.76,6.76,0,0,0,2.74.57,6.84,6.84,0,0,0,2.75-.57,7,7,0,0,0,2.27-1.55,7.52,7.52,0,0,0,1.53-2.3,6.84,6.84,0,0,0,.57-2.75A7.3,7.3,0,0,0,177.1,132Z"/><path class="cls-2" d="M193.92,118.9a2.39,2.39,0,0,1,1.66.72,2.27,2.27,0,0,1,.76,1.71v20.82a3.65,3.65,0,0,0,1,2.62,3.41,3.41,0,0,0,2.57,1,2.39,2.39,0,0,1,1.71.69,2.45,2.45,0,0,1,.77,1.68,2.24,2.24,0,0,1-.7,1.48,3.51,3.51,0,0,1-1.48.9h-.69a7.18,7.18,0,0,1-3.12-.7A8.57,8.57,0,0,1,193.8,148a8.75,8.75,0,0,1-1.76-2.7,8.08,8.08,0,0,1-.64-3.16V121.33a2.37,2.37,0,0,1,.76-1.64A2.43,2.43,0,0,1,193.92,118.9Z"/><path class="cls-2" d="M206.78,126.52a2.54,2.54,0,0,1,1.68.79,2.38,2.38,0,0,1,.74,1.73v9.5a6.77,6.77,0,0,0,.57,2.77,7.6,7.6,0,0,0,1.53,2.25,7.25,7.25,0,0,0,2.28,1.53,6.76,6.76,0,0,0,2.74.57,7,7,0,0,0,2.67-.52,7.8,7.8,0,0,0,2.28-1.41,6.48,6.48,0,0,0,1.55-2.15,6.6,6.6,0,0,0,.57-2.75V129a2.45,2.45,0,0,1,.3-1.19,3.34,3.34,0,0,0,.44-.54,2.58,2.58,0,0,1,1.69-.74,2.69,2.69,0,0,1,1.78.74,2.32,2.32,0,0,1,.54.79,4,4,0,0,1,.2.84v9.65a11.71,11.71,0,0,1-.94,4.65,12,12,0,0,1-6.41,6.38,12,12,0,0,1-4.72.94,10.57,10.57,0,0,1-4.55-.82,12.14,12.14,0,0,1-6.43-6.23,10.72,10.72,0,0,1-1-4.53V129a2.3,2.3,0,0,1,.72-1.7A2.55,2.55,0,0,1,206.78,126.52Z"/><path class="cls-2" d="M233.38,118.85a2.38,2.38,0,0,1,1.81.77,3.05,3.05,0,0,1,.81,1.91V126h11.43a2.23,2.23,0,0,1,1.73.76,2.56,2.56,0,0,1,.69,1.76,2.52,2.52,0,0,1-.74,1.78,2.24,2.24,0,0,1-1.68.79H236v7.22a7.09,7.09,0,0,0,.55,2.74,6.91,6.91,0,0,0,1.51,2.3,7.49,7.49,0,0,0,2.27,1.59,6.83,6.83,0,0,0,2.8.59A7.63,7.63,0,0,0,246,145a6.47,6.47,0,0,0,2.05-1.31H248a2.6,2.6,0,0,1,1.83-.69,2.55,2.55,0,0,1,1.83.74,2.22,2.22,0,0,1,.69,1.73,3,3,0,0,1-.12.82,1.42,1.42,0,0,1-.47.71h.05a12.65,12.65,0,0,1-3.78,2.58,11.2,11.2,0,0,1-4.48.89,13.65,13.65,0,0,1-4.87-.87,12,12,0,0,1-4-2.47,12.32,12.32,0,0,1-3.83-8.88V121.53a2.78,2.78,0,0,1,.72-1.84A2.32,2.32,0,0,1,233.38,118.85Z"/><path class="cls-2" d="M259.44,121.48a2.54,2.54,0,0,1-.74,1.85,2.38,2.38,0,0,1-1.78.77,2.63,2.63,0,0,1-2.62-2.62,2.47,2.47,0,0,1,.77-1.81,2.53,2.53,0,0,1,1.85-.77,2.38,2.38,0,0,1,1.78.77A2.48,2.48,0,0,1,259.44,121.48Zm-2.52,29a2.55,2.55,0,0,1-1.85-.75,2.5,2.5,0,0,1-.77-1.88V129.29a2.44,2.44,0,0,1,.77-1.83,2.58,2.58,0,0,1,1.85-.74,2.48,2.48,0,0,1,1.76.74,2.43,2.43,0,0,1,.76,1.83v18.59a2.49,2.49,0,0,1-.76,1.88A2.45,2.45,0,0,1,256.92,150.51Z"/><path class="cls-2" d="M273.94,127.06a10.93,10.93,0,0,1,4.57,1,12.36,12.36,0,0,1,6.38,6.4,11.23,11.23,0,0,1,1,4.65,11.58,11.58,0,0,1-.94,4.63,12.59,12.59,0,0,1-2.55,3.78,11.83,11.83,0,0,1-3.78,2.57,11.71,11.71,0,0,1-4.7.94,12.22,12.22,0,0,1-4.65-.89,11.67,11.67,0,0,1-3.81-2.5,11.79,11.79,0,0,1-3.51-8.53,11.65,11.65,0,0,1,.91-4.62,11.49,11.49,0,0,1,2.55-3.76,12.69,12.69,0,0,1,3.83-2.57A12.92,12.92,0,0,1,273.94,127.06Zm-.05,4.9a7.08,7.08,0,0,0-5,2,7.32,7.32,0,0,0-1.54,2.25,7.2,7.2,0,0,0,0,5.57,7.55,7.55,0,0,0,1.54,2.3,7,7,0,0,0,2.27,1.55,6.89,6.89,0,0,0,5.49,0,7.2,7.2,0,0,0,2.28-1.55,7.71,7.71,0,0,0,1.53-2.3,6.84,6.84,0,0,0,.57-2.75,7.32,7.32,0,0,0-7.07-7.12Z"/><path class="cls-2" d="M300.2,126.42a12.15,12.15,0,0,1,4.55.87,11.88,11.88,0,0,1,3.81,2.39,12.11,12.11,0,0,1,2.62,3.66,10.8,10.8,0,0,1,1,4.6v10a2.26,2.26,0,0,1-.72,1.69,2.57,2.57,0,0,1-1.71.74,2.44,2.44,0,0,1-1.7-.65,2.07,2.07,0,0,1-.72-1.63v-9.69a7,7,0,0,0-2.05-5,7.37,7.37,0,0,0-2.28-1.53,7,7,0,0,0-2.84-.57,7,7,0,0,0-4.92,2,7.44,7.44,0,0,0-1.54,2.18,6.49,6.49,0,0,0-.56,2.67v9.84a2.29,2.29,0,0,1-.75,1.71,2.4,2.4,0,0,1-1.73.72,2.57,2.57,0,0,1-1.73-.65,2.06,2.06,0,0,1-.74-1.63v-9.69a12.1,12.1,0,0,1,1-4.65,12.59,12.59,0,0,1,2.52-3.81,11.64,11.64,0,0,1,3.76-2.57A11.78,11.78,0,0,1,300.2,126.42Z"/><path class="cls-2" d="M47.23,102.84C40.06,95.72,33,88.51,25.65,81.51c-2.29-2.2-2.29-3.52,0-5.78Q47.46,54.24,69,32.43c2.26-2.29,3.61-2.23,5.83,0q21.53,21.79,43.29,43.34c1.86,1.84,2.73,3.13.35,5.39-7.46,7.08-14.72,14.38-22.06,21.59l-.59.07c-7.09-7.15-14.26-14.21-21.21-21.5-2.16-2.27-3.39-1.79-5.31.17-7,7.19-14.26,14.23-21.4,21.32Z"/><path class="cls-3" d="M47.23,102.84a2.29,2.29,0,0,1,.64,0c3.69,3.74,7.42,7.43,11.06,11.22,8,8.37,8.08,18.25.07,26.45-3.66,3.76-7.26,9.81-11.38,10.26-4.3.46-7.56-6.35-11.36-9.88-3.57-3.31-6.79-7-10.42-10.27-2.54-2.28-2.67-3.8-.09-6.27C33.06,117.32,40.09,110,47.23,102.84Z"/><path class="cls-3" d="M95.79,102.84a2.38,2.38,0,0,1,.59-.07c7.14,7.16,14.2,14.43,21.49,21.43,2.51,2.41,2.48,3.89,0,6.26-6.38,6.06-12.59,12.32-18.69,18.67-2.12,2.2-3.54,2.71-5.76.14-2.68-3.11-5.79-5.85-8.68-8.8-7.86-8-8-17.73-.31-26C88.12,110.53,92,106.72,95.79,102.84Z"/><path class="cls-3" d="M172.43,71.55V106.9a4.44,4.44,0,0,1-4.48,4.48,4.36,4.36,0,0,1-4.57-4.48V93.8H147.05v13.1a4.24,4.24,0,0,1-1.35,3.18,4.56,4.56,0,0,1-3.31,1.3,4.12,4.12,0,0,1-3.14-1.34A4.47,4.47,0,0,1,138,106.9V71.38a16.72,16.72,0,0,1,1.39-6.78,18.09,18.09,0,0,1,3.68-5.51,17,17,0,0,1,12.06-5,16.86,16.86,0,0,1,6.73,1.35A17.77,17.77,0,0,1,167.32,59a17.45,17.45,0,0,1,3.73,5.43,16.29,16.29,0,0,1,1.38,6.64Zm-9.05-.17a8.07,8.07,0,0,0-.63-3.19,8.22,8.22,0,0,0-1.75-2.6,8,8,0,0,0-2.65-1.75,8.34,8.34,0,0,0-3.23-.63,7.76,7.76,0,0,0-5.74,2.38,8,8,0,0,0-2.33,5.79V84.47h16.33Z"/><path class="cls-3" d="M211.45,69.22a4.34,4.34,0,0,1,2.87-1.16,4.48,4.48,0,0,1,3.23,1.43v-.18a4.13,4.13,0,0,1,1.17,3,4.23,4.23,0,0,1-1.17,3.14L203.47,89.67l14.08,14.18a4.36,4.36,0,0,1,1.26,3.23,5.08,5.08,0,0,1-.27,1.61,3.94,3.94,0,0,1-1,1.53,4,4,0,0,1-3,1.16,4.7,4.7,0,0,1-3.41-1.43L197.1,96l-3.41,3.41-3.59,3.63c-1.19,1.23-2.39,2.44-3.58,3.64s-2.33,2.33-3.41,3.41a4,4,0,0,1-1.53.94,5.62,5.62,0,0,1-1.88.31,5.1,5.1,0,0,1-1.53-.22,3.68,3.68,0,0,1-1.43-.94,4.79,4.79,0,0,1-1.26-3.23,4.18,4.18,0,0,1,1.17-3h-.09L191,89.67,176.56,75.32a3.82,3.82,0,0,1-1.08-2.69,5.11,5.11,0,0,1,1.26-3.32,4.33,4.33,0,0,1,3-1.34A4.61,4.61,0,0,1,183,69.49v-.18L197.1,83.4Z"/><path class="cls-3" d="M231.19,58.73a4.64,4.64,0,0,1-1.35,3.36,4.32,4.32,0,0,1-3.23,1.39,4.75,4.75,0,0,1-4.75-4.75,4.48,4.48,0,0,1,1.39-3.28,4.61,4.61,0,0,1,3.36-1.39,4.36,4.36,0,0,1,3.23,1.39A4.56,4.56,0,0,1,231.19,58.73Zm-4.58,52.65a4.69,4.69,0,0,1-3.36-1.34,4.55,4.55,0,0,1-1.39-3.41V72.9a4.44,4.44,0,0,1,1.39-3.32,4.65,4.65,0,0,1,3.36-1.34,4.66,4.66,0,0,1,4.58,4.66v33.73A4.58,4.58,0,0,1,229.8,110,4.49,4.49,0,0,1,226.61,111.38Z"/><path class="cls-3" d="M255.67,68.86a20.16,20.16,0,0,1,8.3,1.75,22.91,22.91,0,0,1,6.86,4.71,22.41,22.41,0,0,1,4.71,6.91,20.5,20.5,0,0,1,1.75,8.43,20.83,20.83,0,0,1-1.7,8.39,22.64,22.64,0,0,1-4.62,6.86,21.49,21.49,0,0,1-6.86,4.66,21.26,21.26,0,0,1-8.52,1.71,22,22,0,0,1-8.44-1.62,21.17,21.17,0,0,1-6.91-4.52,21.69,21.69,0,0,1-4.66-6.87,21.41,21.41,0,0,1-1.7-8.61,21.07,21.07,0,0,1,1.66-8.38,20.81,20.81,0,0,1,4.61-6.82,23,23,0,0,1,7-4.67A23.53,23.53,0,0,1,255.67,68.86Zm-.08,8.88a12.88,12.88,0,0,0-5,1,12.64,12.64,0,0,0-4.12,2.74,13.18,13.18,0,0,0-2.78,4.08,12.44,12.44,0,0,0-1,5.11,12.31,12.31,0,0,0,1,5,13.71,13.71,0,0,0,2.78,4.17,12.88,12.88,0,0,0,4.12,2.83,12.55,12.55,0,0,0,10,0,12.82,12.82,0,0,0,4.13-2.83,13.9,13.9,0,0,0,2.78-4.17,12.31,12.31,0,0,0,1-5,13.28,13.28,0,0,0-12.83-12.92Z"/><path class="cls-3" d="M279.62,80.79a12.29,12.29,0,0,1,1-4.84,13.76,13.76,0,0,1,2.69-4.13,13.46,13.46,0,0,1,4-2.87,12.72,12.72,0,0,1,5-1.16h17.31a3.82,3.82,0,0,1,3,1.39,4.37,4.37,0,0,1,1.21,2.91,4.22,4.22,0,0,1-1.3,3.1,4.07,4.07,0,0,1-2.92,1.3H292.81a4.19,4.19,0,0,0-3.28,1.25,4.47,4.47,0,0,0-1.12,3.05,4.65,4.65,0,0,0,1.12,3,4,4,0,0,0,3.28,1.35h11a11,11,0,0,1,4.85,1.08,12.06,12.06,0,0,1,3.85,2.87,13.57,13.57,0,0,1,2.56,4.17,13.07,13.07,0,0,1,.94,4.88,13.89,13.89,0,0,1-1,5.3,11.89,11.89,0,0,1-2.82,4.17,13.19,13.19,0,0,1-4.31,2.73,14.4,14.4,0,0,1-5.42,1H285.9a3.73,3.73,0,0,1-2.91-1.25,4.42,4.42,0,0,1-1.12-3,4.6,4.6,0,0,1,1.21-3.1,4.13,4.13,0,0,1,3-1.48H302.5a4.75,4.75,0,0,0,3.36-1.12,4.12,4.12,0,0,0,1.21-3.19A3.9,3.9,0,0,0,305.86,95a5.17,5.17,0,0,0-3.36-1H291.73A10.94,10.94,0,0,1,287,93a12.31,12.31,0,0,1-3.85-2.83,12.92,12.92,0,0,1-2.6-4.21A14,14,0,0,1,279.62,80.79Z"/></svg>