<?xml version="1.0" encoding="utf-8"?>
<!-- Generator: Adobe Illustrator 24.3.0, SVG Export Plug-In . SVG Version: 6.00 Build 0)  -->
<svg version="1.1" id="Layer_1" xmlns="http://www.w3.org/2000/svg" xmlns:xlink="http://www.w3.org/1999/xlink" x="0px" y="0px"
	 viewBox="0 0 333.88 143.07" style="enable-background:new 0 0 333.88 143.07;" xml:space="preserve">
<style type="text/css">
	.st0{fill:#207E88;}
	.st1{fill:#000E2C;}
	.st2{fill:#FFFFFF;}
	.st3{fill:url(#SVGID_1_);}
	.st4{fill:#FE2B8C;}
</style>
<g id="gARG_1_">
</g>
<g id="gATA_1_">
</g>
<g id="gATG_1_">
</g>
<g id="gBHS_1_">
</g>
<g id="gBLZ_1_">
</g>
<g id="gBOL_1_">
</g>
<g id="gBRB_1_">
</g>
<g id="gCHL_1_">
</g>
<g id="gNZ1_1_">
	<g id="gCOK_1_">
	</g>
	<g id="gNIU_1_">
	</g>
	<g id="gNZL_1_">
		<g id="gTKL_1_">
		</g>
	</g>
</g>
<g id="gCOL_1_">
</g>
<g id="gCRI_1_">
</g>
<g id="gCUB_1_">
</g>
<g id="gDMA_1_">
</g>
<g id="gDOM_1_">
</g>
<g id="gECU_1_">
</g>
<g id="gFJI_1_">
</g>
<g id="gGRD_1_">
</g>
<g id="gGTM_1_">
</g>
<g id="gGUY_1_">
</g>
<g id="gHND_1_">
</g>
<g id="gHTI_1_">
</g>
<g id="gJAM_1_">
</g>
<g id="gKIR_1_">
</g>
<g id="gKNA_1_">
</g>
<g id="gLCA_1_">
</g>
<g id="gMEX_1_">
</g>
<g id="gMHL_1_">
</g>
<g id="gNIC_1_">
</g>
<g id="gNRU_1_">
</g>
<g id="gPAN_1_">
</g>
<g id="gPER_1_">
</g>
<g id="gPNG_1_">
</g>
<g id="gPRY_1_">
</g>
<g id="gSLB_1_">
</g>
<g id="gSLV_1_">
</g>
<g id="gSUR_1_">
</g>
<g id="gTON_1_">
</g>
<g id="gTTO_1_">
</g>
<g id="gURY_1_">
</g>
<g id="gVCT_1_">
</g>
<g id="gVEN_1_">
</g>
<g id="gVUT_1_">
</g>
<g id="gWSM_1_">
</g>
<g id="gTUV_1_">
</g>
<rect x="-133.06" y="-128.46" class="st0" width="600" height="400"/>
<g>
	<rect x="-1253.6" y="-128.46" class="st0" width="600" height="400"/>
</g>
<g>
	<g>
		<path class="st1" d="M25.97,117.71c-2.75,0-4.7-1.53-4.74-3.79h1.91c0.12,1.14,0.93,2.28,2.83,2.28c1.73,0,2.75-0.98,2.75-2.28
			c0-3.69-7.41-1.34-7.41-6.43c0-2.26,1.83-3.79,4.54-3.79c2.61,0,4.32,1.44,4.54,3.52h-1.96c-0.12-0.92-0.98-1.97-2.65-1.99
			c-1.48-0.04-2.64,0.73-2.64,2.2c0,3.54,7.39,1.34,7.39,6.41C30.53,115.78,28.94,117.71,25.97,117.71z"/>
		<path class="st1" d="M46.07,117.71c-3.85,0-6.88-2.89-6.88-7s3.03-7,6.88-7c3.87,0,6.88,2.89,6.88,7S49.94,117.71,46.07,117.71z
			 M46.07,116.16c2.89,0,5.05-2.1,5.05-5.45c0-3.36-2.16-5.45-5.05-5.45c-2.89,0-5.05,2.08-5.05,5.45
			C41.01,114.05,43.18,116.16,46.07,116.16z"/>
		<path class="st1" d="M63.78,103.87v12.25h4.8v1.46h-6.59v-13.7H63.78z"/>
		<path class="st1" d="M77.13,103.87h1.79v8.67c0,2.52,1.36,3.6,3.38,3.6c2.03,0,3.36-1.08,3.36-3.6v-8.67h1.79v8.65
			c0,3.56-2.34,5.19-5.17,5.19c-2.83,0-5.15-1.63-5.15-5.19V103.87z"/>
		<path class="st1" d="M96.28,103.87h9.28v1.46h-3.73v12.25h-1.79v-12.25h-3.75V103.87z"/>
		<path class="st1" d="M114.45,103.87h1.79v13.7h-1.79V103.87z"/>
		<path class="st1" d="M132.18,117.71c-3.85,0-6.88-2.89-6.88-7s3.03-7,6.88-7c3.87,0,6.88,2.89,6.88,7S136.06,117.71,132.18,117.71
			z M132.18,116.16c2.89,0,5.05-2.1,5.05-5.45c0-3.36-2.16-5.45-5.05-5.45c-2.89,0-5.05,2.08-5.05,5.45
			C127.13,114.05,129.29,116.16,132.18,116.16z"/>
		<path class="st1" d="M158.88,103.85v13.72h-1.79l-7.2-10.91v10.91h-1.79v-13.72h1.79l7.2,10.89v-10.89H158.88z"/>
	</g>
	<path class="st2" d="M39.42,30.63L15.16,98.2h14.21l4.45-12.86h26.87l4.45,12.86h14.31L55.18,30.63H39.42z M37.49,74.52l9.77-28.23
		l9.76,28.23H37.49z M138.03,30.72h-15.27l-13.15,22.62l-14.6-22.62H79.45L101,64.17L79.74,98.2h15.27l13.24-22.72l14.6,22.72h15.56
		l-21.56-33.55L138.03,30.72z M141.33,98.2h13.53V30.72h-13.53V98.2z M284.11,48.9c0-5.51,3.96-8.12,9.28-7.93
		c5.8,0.1,9.38,3.58,9.67,8.02h14.89c-0.87-12.18-10.34-19.24-24.17-19.24c-13.92,0-23.78,7.35-23.78,19.53
		c-0.1,24.46,34.71,15.66,34.71,30.26c0,4.83-3.77,8.22-10.15,8.22c-6.28,0-9.86-3.58-10.25-8.99h-14.5
		c0.19,12.76,11.02,20.11,25.04,20.11c15.37,0,23.88-9.57,23.88-20.2C318.72,54.89,284.11,62.43,284.11,48.9z"/>
	<linearGradient id="SVGID_1_" gradientUnits="userSpaceOnUse" x1="167.1632" y1="76.271" x2="167.1632" y2="47.4533">
		<stop  offset="0" style="stop-color:#FFFFFF"/>
		<stop  offset="1" style="stop-color:#221F1F"/>
	</linearGradient>
	<path class="st3" d="M54.98,65.37l3.53,10.21H35.99l3.53-10.21H28.08L16.67,97.14h11.94l4.45-12.86h28.39l4.45,12.86h12.03
		L66.52,65.37H54.98z M101.51,65.37L81.66,97.14H94.4l13.81-23.69l15.22,23.69h13.03l-20.41-31.76H101.51z M142.39,97.14h11.4V65.37
		h-11.4V97.14z M310.86,65.37h-28.15c2.61,1.06,5.43,1.89,8.23,2.71c7.62,2.22,14.82,4.31,14.82,11.47c0,5.64-4.4,9.28-11.22,9.28
		c-6.28,0-10.4-3.34-11.2-8.99h-12.43c0.73,10.96,9.99,17.98,23.93,17.98c15.67,0,22.81-9.92,22.81-19.14
		C317.65,72.15,314.85,68.13,310.86,65.37z"/>
	<path class="st1" d="M265.57,72.42c0.28,7.31-1.75,14.97-5.26,22.27c-2.35,4.89-5.81,6.53-9.44,4.66c-3.48-1.79-4.17-5.3-1.96-9.98
		c12.54-26.53-4.65-55.67-33.9-57.42c-1.66-0.1-3.4,0.06-5.02,0.44c-2.54,0.59-3.89,2.37-3.83,5.02c0.06,2.7,1.58,4.29,4.16,4.72
		c1.65,0.27,3.36,0.2,5.05,0.28c17.67,0.77,30.93,17.97,26.97,34.98c-1.17,5.04-3.77,7.09-7.91,6.24c-3.8-0.78-5.32-3.64-4.51-8.54
		c1.87-11.4-5.55-19.91-17.54-20.12c-13.49-0.23-21.12-9.39-18.28-21.97c1.73-7.68,7.61-12.67,15.64-13.28
		C240.02,17.41,265.54,41.12,265.57,72.42z"/>
	<path class="st2" d="M213.78,123.45c-38.63-0.12-63.69-40.4-47.06-74.45c0.34-0.69,0.73-1.35,1.11-2.02
		c1.91-3.45,4.69-4.82,8.44-3.21c3.34,1.43,4.47,5.14,2.55,9.03c-4.06,8.22-5.65,16.7-4.13,25.86c3.13,18.92,21.95,33.86,41.05,32.4
		c3.27-0.25,5.4-1.81,5.41-5.04c0.01-3.8-2.46-5.08-6.13-5.16c-14.91-0.31-25.68-8.1-29.48-21.08c-1.46-4.98-1.39-10.04-0.38-15.04
		c0.83-4.08,4.16-6.13,7.8-5.29c3.42,0.78,5.31,3.88,4.75,7.77c-1.86,13.07,4.74,20.68,18.16,20.9c6.95,0.11,12.69,2.55,15.89,9.02
		c3.24,6.55,2.86,13.15-1.26,19.22C226.32,122.52,219.98,123.86,213.78,123.45z"/>
</g>
<g>
	<g>
		<path class="st2" d="M-976.3,105.83c-0.78,0.81-1.18,1.82-1.21,3.04c0.07,1.09,0.48,2.03,1.24,2.82c0.76,0.79,1.71,1.19,2.87,1.19
			h3.61c1.15,0,2.27,0.24,3.36,0.72c1.09,0.48,2.05,1.13,2.89,1.95c0.84,0.83,1.52,1.8,2.03,2.92c0.51,1.12,0.77,2.32,0.77,3.61
			c0,1.25-0.24,2.42-0.72,3.51c-0.48,1.09-1.12,2.04-1.93,2.87c-0.81,0.82-1.76,1.47-2.87,1.95c-1.1,0.48-2.28,0.74-3.54,0.77h-9.4
			c-0.76,0-1.37-0.23-1.83-0.69c-0.46-0.46-0.69-1.07-0.69-1.83c0-0.66,0.24-1.24,0.72-1.73c0.48-0.5,1.08-0.74,1.81-0.74h9.4
			c0.53,0,1.05-0.11,1.56-0.32c0.51-0.21,0.96-0.51,1.33-0.89c0.38-0.38,0.68-0.82,0.92-1.31c0.23-0.5,0.34-1.02,0.34-1.58
			c0-0.59-0.11-1.14-0.34-1.63c-0.23-0.49-0.53-0.93-0.89-1.31s-0.8-0.68-1.31-0.89c-0.51-0.21-1.03-0.34-1.56-0.37h-3.66
			c-1.19-0.03-2.33-0.28-3.44-0.74c-1.1-0.46-2.08-1.1-2.92-1.9c-0.84-0.81-1.51-1.76-2-2.87c-0.49-1.1-0.74-2.3-0.74-3.58
			c0-1.19,0.24-2.33,0.72-3.44s1.13-2.09,1.95-2.94c0.82-0.86,1.79-1.54,2.89-2.05s2.28-0.77,3.54-0.77h9.4
			c0.66,0,1.22,0.25,1.68,0.77c0.46,0.51,0.72,1.13,0.79,1.86c-0.03,0.69-0.28,1.27-0.74,1.73c-0.46,0.46-1.04,0.69-1.73,0.69h-9.4
			C-974.56,104.62-975.52,105.02-976.3,105.83z"/>
		<path class="st2" d="M-946.45,107.73c1.61,0,3.14,0.32,4.57,0.96c1.43,0.64,2.69,1.51,3.78,2.6c1.09,1.09,1.95,2.36,2.6,3.81
			c0.64,1.45,0.96,3,0.96,4.65s-0.31,3.19-0.94,4.62c-0.63,1.43-1.47,2.69-2.55,3.78c-1.07,1.09-2.33,1.95-3.78,2.57
			c-1.45,0.62-3.02,0.94-4.7,0.94c-1.65,0-3.2-0.3-4.65-0.89c-1.45-0.6-2.72-1.43-3.81-2.5c-1.09-1.07-1.95-2.33-2.57-3.78
			c-0.63-1.45-0.94-3.03-0.94-4.75c0-1.65,0.3-3.19,0.92-4.62c0.61-1.43,1.46-2.69,2.55-3.76c1.09-1.07,2.37-1.93,3.83-2.57
			C-949.71,108.15-948.13,107.8-946.45,107.73z M-946.5,112.63c-0.96,0-1.87,0.18-2.75,0.54c-0.87,0.36-1.63,0.87-2.27,1.51
			c-0.64,0.64-1.15,1.39-1.53,2.25c-0.38,0.86-0.57,1.8-0.57,2.82c0,0.96,0.19,1.87,0.57,2.74c0.38,0.87,0.89,1.64,1.53,2.3
			c0.64,0.66,1.4,1.18,2.27,1.56c0.87,0.38,1.79,0.57,2.75,0.57c0.96,0,1.87-0.19,2.74-0.57c0.87-0.38,1.63-0.9,2.27-1.56
			c0.64-0.66,1.15-1.42,1.53-2.3c0.38-0.87,0.57-1.79,0.57-2.74c-0.1-1.95-0.79-3.59-2.08-4.92c-1.29-1.33-2.95-2.07-4.99-2.2
			H-946.5z"/>
		<path class="st2" d="M-929.63,99.57c0.59,0,1.15,0.24,1.66,0.72c0.51,0.48,0.77,1.05,0.77,1.71v20.82c0,1.06,0.33,1.93,0.99,2.62
			c0.66,0.69,1.52,1.04,2.57,1.04c0.66,0,1.23,0.23,1.71,0.69c0.48,0.46,0.73,1.02,0.77,1.68c-0.03,0.56-0.26,1.06-0.69,1.48
			c-0.43,0.43-0.92,0.73-1.48,0.89h-0.69c-1.09,0-2.13-0.23-3.12-0.69c-0.99-0.46-1.85-1.08-2.6-1.86
			c-0.74-0.77-1.33-1.67-1.76-2.69c-0.43-1.02-0.64-2.08-0.64-3.17V102c0-0.56,0.25-1.1,0.77-1.63
			C-930.88,99.84-930.3,99.57-929.63,99.57z"/>
		<path class="st2" d="M-916.78,107.19c0.62,0.03,1.19,0.3,1.68,0.79c0.49,0.49,0.74,1.07,0.74,1.73v9.5c0,0.99,0.19,1.91,0.57,2.77
			c0.38,0.86,0.89,1.61,1.53,2.25s1.4,1.15,2.27,1.53c0.87,0.38,1.79,0.57,2.74,0.57c0.92,0,1.81-0.17,2.67-0.52
			s1.61-0.82,2.27-1.41c0.66-0.59,1.18-1.31,1.56-2.15c0.38-0.84,0.57-1.76,0.57-2.75v-9.84c0-0.43,0.1-0.82,0.3-1.19
			c0.16-0.16,0.31-0.34,0.44-0.54c0.56-0.49,1.12-0.74,1.68-0.74c0.63,0,1.22,0.25,1.78,0.74c0.26,0.26,0.44,0.53,0.54,0.79
			c0.1,0.26,0.16,0.54,0.2,0.84v9.65c0,1.65-0.31,3.2-0.94,4.65c-0.63,1.45-1.48,2.72-2.57,3.81c-1.09,1.09-2.37,1.95-3.83,2.57
			c-1.47,0.63-3.04,0.94-4.72,0.94c-1.58,0.07-3.1-0.21-4.55-0.82c-1.45-0.61-2.72-1.44-3.81-2.5c-1.09-1.06-1.96-2.3-2.62-3.73
			c-0.66-1.43-0.99-2.94-0.99-4.52v-9.94c0-0.66,0.24-1.23,0.72-1.71S-917.47,107.22-916.78,107.19z"/>
		<path class="st2" d="M-890.17,99.52c0.72,0,1.33,0.26,1.8,0.77c0.48,0.51,0.75,1.15,0.82,1.91v4.45h11.42
			c0.69,0,1.27,0.25,1.73,0.77c0.46,0.51,0.69,1.1,0.69,1.76c0,0.66-0.25,1.25-0.74,1.78c-0.49,0.53-1.06,0.79-1.68,0.79h-11.42
			v7.22c0,0.96,0.18,1.87,0.55,2.74c0.36,0.87,0.86,1.64,1.51,2.3c0.64,0.66,1.4,1.19,2.27,1.58c0.87,0.4,1.8,0.59,2.79,0.59
			c1.12,0,2.07-0.16,2.84-0.47c0.78-0.31,1.46-0.75,2.05-1.31h-0.05c0.49-0.46,1.1-0.69,1.83-0.69c0.69,0,1.3,0.25,1.83,0.74
			c0.46,0.43,0.69,1.01,0.69,1.73c0,0.27-0.04,0.54-0.12,0.82c-0.08,0.28-0.24,0.52-0.47,0.72h0.05c-1.15,1.12-2.42,1.98-3.78,2.57
			c-1.37,0.59-2.86,0.89-4.48,0.89c-1.72,0-3.34-0.29-4.87-0.87s-2.87-1.4-4.01-2.47c-1.14-1.07-2.05-2.36-2.74-3.86
			c-0.69-1.5-1.06-3.17-1.09-5.02V102.2c0-0.66,0.24-1.27,0.72-1.83C-891.55,99.8-890.93,99.52-890.17,99.52z"/>
		<path class="st2" d="M-864.11,102.15c0,0.72-0.25,1.34-0.74,1.85c-0.49,0.51-1.09,0.77-1.78,0.77c-0.73,0-1.35-0.25-1.86-0.77
			c-0.51-0.51-0.77-1.13-0.77-1.85c0-0.69,0.25-1.29,0.77-1.81c0.51-0.51,1.13-0.77,1.86-0.77c0.69,0,1.29,0.25,1.78,0.77
			C-864.36,100.85-864.11,101.45-864.11,102.15z M-866.63,131.18c-0.73,0-1.35-0.25-1.86-0.74c-0.51-0.49-0.77-1.12-0.77-1.88
			v-18.59c0-0.73,0.25-1.34,0.77-1.83c0.51-0.49,1.13-0.74,1.86-0.74c0.66,0,1.24,0.25,1.75,0.74c0.51,0.49,0.77,1.1,0.77,1.83
			v18.59c0,0.76-0.25,1.39-0.77,1.88C-865.39,130.93-865.97,131.18-866.63,131.18z"/>
		<path class="st2" d="M-849.62,107.73c1.61,0,3.14,0.32,4.57,0.96c1.43,0.64,2.69,1.51,3.78,2.6c1.09,1.09,1.95,2.36,2.6,3.81
			c0.64,1.45,0.96,3,0.96,4.65s-0.31,3.19-0.94,4.62s-1.47,2.69-2.55,3.78c-1.07,1.09-2.33,1.95-3.78,2.57
			c-1.45,0.62-3.02,0.94-4.7,0.94c-1.65,0-3.2-0.3-4.65-0.89c-1.45-0.6-2.72-1.43-3.81-2.5c-1.09-1.07-1.95-2.33-2.57-3.78
			c-0.63-1.45-0.94-3.03-0.94-4.75c0-1.65,0.3-3.19,0.92-4.62c0.61-1.43,1.46-2.69,2.55-3.76c1.09-1.07,2.37-1.93,3.83-2.57
			C-852.88,108.15-851.3,107.8-849.62,107.73z M-849.67,112.63c-0.96,0-1.87,0.18-2.75,0.54c-0.87,0.36-1.63,0.87-2.27,1.51
			c-0.64,0.64-1.15,1.39-1.53,2.25c-0.38,0.86-0.57,1.8-0.57,2.82c0,0.96,0.19,1.87,0.57,2.74c0.38,0.87,0.89,1.64,1.53,2.3
			c0.64,0.66,1.4,1.18,2.27,1.56c0.87,0.38,1.79,0.57,2.75,0.57c0.96,0,1.87-0.19,2.74-0.57c0.87-0.38,1.63-0.9,2.27-1.56
			c0.64-0.66,1.15-1.42,1.53-2.3c0.38-0.87,0.57-1.79,0.57-2.74c-0.1-1.95-0.79-3.59-2.08-4.92c-1.29-1.33-2.95-2.07-4.99-2.2
			H-849.67z"/>
		<path class="st2" d="M-823.36,107.09c1.58,0,3.1,0.29,4.55,0.87c1.45,0.58,2.72,1.38,3.81,2.4c1.09,1.02,1.96,2.24,2.62,3.66
			c0.66,1.42,0.99,2.95,0.99,4.6v9.99c0,0.66-0.24,1.22-0.72,1.68c-0.48,0.46-1.05,0.71-1.71,0.74c-0.66,0-1.23-0.21-1.71-0.64
			s-0.72-0.97-0.72-1.63v-9.69c0-0.99-0.18-1.91-0.54-2.77c-0.36-0.86-0.87-1.61-1.51-2.25c-0.64-0.64-1.4-1.15-2.27-1.53
			c-0.87-0.38-1.82-0.57-2.84-0.57c-0.96,0-1.86,0.17-2.7,0.52c-0.84,0.35-1.58,0.83-2.23,1.46c-0.64,0.63-1.15,1.35-1.53,2.18
			c-0.38,0.82-0.57,1.71-0.57,2.67v9.84c0,0.66-0.25,1.23-0.74,1.71c-0.5,0.48-1.07,0.72-1.73,0.72c-0.66,0-1.24-0.21-1.73-0.64
			c-0.49-0.43-0.74-0.97-0.74-1.63v-9.69c0.03-1.65,0.36-3.2,0.99-4.65c0.62-1.45,1.47-2.72,2.52-3.81
			c1.06-1.09,2.31-1.95,3.76-2.57C-826.65,107.4-825.07,107.09-823.36,107.09z"/>
	</g>
	<path class="st2" d="M-1076.32,83.51c-7.18-7.13-14.28-14.33-21.58-21.33c-2.3-2.2-2.29-3.52-0.01-5.78
		c14.54-14.34,28.98-28.78,43.32-43.31c2.26-2.29,3.61-2.23,5.83,0.02c14.35,14.53,28.81,28.95,43.29,43.34
		c1.85,1.84,2.73,3.14,0.35,5.39c-7.47,7.08-14.73,14.38-22.07,21.6c-0.19,0.02-0.39,0.05-0.58,0.07
		c-7.09-7.15-14.27-14.22-21.21-21.5c-2.16-2.27-3.39-1.79-5.31,0.17c-7.05,7.19-14.25,14.22-21.4,21.32
		C-1075.9,83.51-1076.11,83.51-1076.32,83.51z"/>
	<path class="st4" d="M-1076.32,83.51c0.21-0.03,0.42-0.04,0.63-0.01c3.69,3.74,7.43,7.43,11.06,11.22
		c8.03,8.37,8.08,18.26,0.07,26.46c-3.66,3.75-7.26,9.81-11.38,10.25c-4.3,0.46-7.56-6.34-11.36-9.87
		c-3.57-3.32-6.8-7.02-10.42-10.28c-2.54-2.28-2.67-3.8-0.09-6.27C-1090.5,97.99-1083.46,90.7-1076.32,83.51z"/>
	<path class="st4" d="M-1027.76,83.51c0.19-0.05,0.39-0.07,0.59-0.07c7.15,7.16,14.2,14.42,21.5,21.43
		c2.51,2.41,2.48,3.89-0.02,6.26c-6.38,6.07-12.6,12.32-18.7,18.67c-2.11,2.2-3.54,2.71-5.75,0.14c-2.69-3.11-5.8-5.86-8.68-8.8
		c-7.86-8.03-8.01-17.73-0.31-25.97C-1035.44,91.2-1031.56,87.39-1027.76,83.51z"/>
	<g>
		<path class="st4" d="M-951.12,52.22v35.34c0,1.26-0.43,2.32-1.3,3.18c-0.87,0.87-1.93,1.3-3.18,1.3c-1.38,0-2.48-0.43-3.32-1.3
			c-0.84-0.87-1.26-1.93-1.26-3.18v-13.1h-16.33v13.1c0,1.26-0.45,2.32-1.35,3.18c-0.9,0.87-2,1.3-3.32,1.3
			c-1.26,0-2.3-0.45-3.14-1.35c-0.84-0.9-1.26-1.94-1.26-3.14V52.05c0-2.39,0.46-4.65,1.39-6.77c0.93-2.12,2.15-3.96,3.68-5.52
			c1.53-1.56,3.33-2.78,5.43-3.68c2.09-0.9,4.3-1.35,6.64-1.35c2.39,0,4.63,0.45,6.73,1.35c2.09,0.9,3.91,2.11,5.47,3.63
			c1.55,1.52,2.79,3.33,3.72,5.43c0.93,2.09,1.39,4.31,1.39,6.64V52.22z M-960.18,52.05c0-1.14-0.21-2.2-0.63-3.19
			c-0.42-0.99-1-1.85-1.75-2.6c-0.75-0.75-1.63-1.33-2.65-1.75c-1.02-0.42-2.09-0.63-3.23-0.63c-2.27,0-4.19,0.79-5.74,2.38
			c-1.56,1.58-2.33,3.51-2.33,5.79v13.09h16.33V52.05z"/>
		<path class="st4" d="M-912.1,49.89c0.9-0.78,1.85-1.17,2.87-1.17c1.19,0,2.27,0.48,3.23,1.44v-0.18c0.78,0.78,1.17,1.79,1.17,3.05
			c0,1.32-0.39,2.36-1.17,3.14l-14.08,14.17L-906,84.52c0.84,0.84,1.26,1.91,1.26,3.23c0,0.54-0.09,1.08-0.27,1.61
			c-0.18,0.54-0.51,1.05-0.99,1.53c-0.78,0.78-1.77,1.17-2.96,1.17c-1.32,0-2.45-0.48-3.41-1.44l-14.08-13.9
			c-1.08,1.08-2.21,2.21-3.41,3.41c-1.2,1.2-2.39,2.41-3.59,3.63c-1.19,1.23-2.39,2.44-3.59,3.63c-1.2,1.2-2.33,2.33-3.41,3.41
			c-0.42,0.42-0.93,0.73-1.52,0.94c-0.6,0.21-1.23,0.31-1.88,0.31c-0.54,0-1.05-0.07-1.52-0.22c-0.48-0.15-0.96-0.46-1.44-0.94
			c-0.84-0.96-1.26-2.03-1.26-3.23c0-1.13,0.39-2.12,1.17-2.96h-0.09l14.44-14.35l-14.44-14.35c-0.72-0.78-1.08-1.67-1.08-2.69
			c0-1.2,0.42-2.3,1.26-3.32c0.96-0.9,1.94-1.34,2.96-1.34c1.2,0,2.3,0.51,3.32,1.52v-0.18l14.08,14.08L-912.1,49.89z"/>
		<path class="st4" d="M-892.37,39.4c0,1.31-0.45,2.44-1.35,3.36s-1.97,1.39-3.23,1.39c-1.32,0-2.44-0.46-3.36-1.39
			c-0.93-0.93-1.39-2.05-1.39-3.36c0-1.26,0.46-2.35,1.39-3.27c0.93-0.93,2.05-1.39,3.36-1.39c1.26,0,2.33,0.46,3.23,1.39
			C-892.82,37.05-892.37,38.14-892.37,39.4z M-896.94,92.05c-1.32,0-2.44-0.45-3.36-1.35c-0.93-0.9-1.39-2.03-1.39-3.41V53.57
			c0-1.31,0.46-2.42,1.39-3.32c0.93-0.9,2.05-1.35,3.36-1.35c1.19,0,2.26,0.45,3.18,1.35c0.93,0.9,1.39,2,1.39,3.32V87.3
			c0,1.38-0.46,2.51-1.39,3.41C-894.68,91.6-895.75,92.05-896.94,92.05z"/>
		<path class="st4" d="M-867.88,49.53c2.93,0,5.7,0.58,8.3,1.75c2.6,1.17,4.89,2.74,6.86,4.71s3.54,4.28,4.71,6.91
			c1.17,2.63,1.75,5.44,1.75,8.43c0,2.99-0.57,5.79-1.7,8.39c-1.14,2.6-2.68,4.89-4.62,6.86c-1.94,1.97-4.23,3.53-6.86,4.66
			c-2.63,1.13-5.47,1.7-8.52,1.7c-2.99,0-5.8-0.54-8.43-1.61c-2.63-1.08-4.93-2.59-6.91-4.53c-1.97-1.94-3.53-4.23-4.66-6.86
			c-1.14-2.63-1.7-5.5-1.7-8.61c0-2.99,0.55-5.79,1.66-8.38c1.11-2.6,2.65-4.87,4.62-6.82c1.98-1.94,4.29-3.5,6.95-4.66
			C-873.79,50.3-870.93,49.65-867.88,49.53z M-867.97,58.41c-1.74,0-3.4,0.33-4.98,0.99c-1.58,0.66-2.96,1.57-4.13,2.73
			c-1.17,1.17-2.09,2.53-2.78,4.08c-0.69,1.56-1.03,3.26-1.03,5.11c0,1.74,0.34,3.4,1.03,4.98c0.69,1.58,1.61,2.97,2.78,4.17
			c1.17,1.2,2.54,2.14,4.13,2.83s3.24,1.03,4.98,1.03c1.73,0,3.39-0.34,4.98-1.03c1.58-0.69,2.96-1.63,4.13-2.83
			c1.17-1.2,2.09-2.59,2.78-4.17c0.69-1.58,1.03-3.24,1.03-4.98c-0.18-3.53-1.44-6.5-3.77-8.92c-2.33-2.42-5.35-3.75-9.06-3.99
			H-867.97z"/>
		<path class="st4" d="M-843.93,61.46c0-1.67,0.33-3.29,0.99-4.84c0.66-1.56,1.55-2.93,2.69-4.13c1.14-1.19,2.47-2.15,3.99-2.87
			c1.52-0.72,3.18-1.1,4.98-1.17h17.31c1.2,0,2.2,0.46,3.01,1.39c0.81,0.93,1.21,1.9,1.21,2.92c0,1.2-0.43,2.23-1.3,3.09
			c-0.87,0.87-1.84,1.3-2.92,1.3h-16.77c-1.44,0-2.53,0.42-3.28,1.26c-0.75,0.84-1.12,1.86-1.12,3.05c0,1.14,0.37,2.15,1.12,3.05
			c0.75,0.9,1.84,1.35,3.28,1.35h11.03c1.73,0,3.35,0.36,4.85,1.08c1.49,0.72,2.78,1.68,3.86,2.87c1.08,1.2,1.93,2.59,2.56,4.17
			c0.63,1.58,0.94,3.22,0.94,4.89c0,1.92-0.33,3.68-0.99,5.29c-0.66,1.61-1.6,3.01-2.83,4.17c-1.23,1.17-2.66,2.08-4.31,2.73
			c-1.64,0.66-3.45,0.99-5.43,0.99h-16.59c-1.2,0-2.17-0.42-2.92-1.26c-0.75-0.84-1.12-1.85-1.12-3.05c0-1.13,0.4-2.17,1.21-3.09
			c0.81-0.93,1.81-1.42,3.01-1.48h16.41c1.44,0,2.56-0.37,3.36-1.12c0.81-0.75,1.21-1.81,1.21-3.19c0-1.49-0.4-2.57-1.21-3.23
			c-0.81-0.66-1.93-0.99-3.36-0.99h-10.76c-1.68,0-3.24-0.34-4.71-1.03c-1.47-0.69-2.75-1.63-3.86-2.83
			c-1.11-1.19-1.98-2.6-2.6-4.22C-843.62,64.96-843.93,63.26-843.93,61.46z"/>
	</g>
</g>
</svg>
