<svg id="Layer_1" data-name="Layer 1" xmlns="http://www.w3.org/2000/svg" xmlns:xlink="http://www.w3.org/1999/xlink" viewBox="0 0 333.88 143.07"><defs><style>.cls-1{fill:#207e88;}.cls-2{fill:#000e2c;}.cls-3{fill:#fff;}.cls-4{fill:url(#White_Black);}</style><linearGradient id="White_Black" x1="167.16" y1="76.27" x2="167.16" y2="47.45" gradientUnits="userSpaceOnUse"><stop offset="0" stop-color="#fff"/><stop offset="1" stop-color="#221f1f"/></linearGradient></defs><rect class="cls-1" x="-133.06" y="-128.46" width="600" height="400"/><path class="cls-2" d="M26,117.71c-2.75,0-4.69-1.53-4.73-3.79h1.9A2.54,2.54,0,0,0,26,116.2c1.73,0,2.75-1,2.75-2.28,0-3.7-7.41-1.34-7.41-6.43,0-2.26,1.83-3.8,4.55-3.8s4.32,1.44,4.54,3.52h-2a2.48,2.48,0,0,0-2.65-2c-1.48,0-2.64.72-2.64,2.2,0,3.54,7.39,1.34,7.39,6.41C30.53,115.78,28.94,117.71,26,117.71Z"/><path class="cls-2" d="M46.07,117.71a7,7,0,1,1,6.88-7A6.75,6.75,0,0,1,46.07,117.71Zm0-1.55c2.89,0,5-2.11,5-5.45s-2.16-5.44-5-5.44S41,107.35,41,110.71,43.18,116.16,46.07,116.16Z"/><path class="cls-2" d="M63.78,103.87v12.25h4.8v1.45H62v-13.7Z"/><path class="cls-2" d="M77.13,103.87h1.79v8.67c0,2.52,1.36,3.6,3.38,3.6s3.36-1.08,3.36-3.6v-8.67h1.79v8.65a5.16,5.16,0,1,1-10.32,0Z"/><path class="cls-2" d="M96.28,103.87h9.28v1.46h-3.73v12.24H100V105.33H96.28Z"/><path class="cls-2" d="M114.45,103.87h1.79v13.7h-1.79Z"/><path class="cls-2" d="M132.18,117.71a7,7,0,1,1,6.88-7A6.76,6.76,0,0,1,132.18,117.71Zm0-1.55c2.89,0,5.06-2.11,5.06-5.45s-2.17-5.44-5.06-5.44-5.05,2.08-5.05,5.44S129.29,116.16,132.18,116.16Z"/><path class="cls-2" d="M158.88,103.85v13.72h-1.79l-7.19-10.91v10.91h-1.79V103.85h1.79l7.19,10.89V103.85Z"/><path class="cls-3" d="M39.42,30.63,15.16,98.2H29.37l4.45-12.86H60.69L65.14,98.2H79.45L55.18,30.63ZM37.49,74.52l9.77-28.23L57,74.52ZM138,30.72H122.76L109.61,53.34,95,30.72H79.45L101,64.17l-21.26,34H95l13.25-22.72L122.85,98.2h15.57L116.86,64.66Zm3.3,67.48h13.53V30.72H141.33ZM284.11,48.9c0-5.51,4-8.12,9.28-7.93,5.8.1,9.38,3.58,9.67,8h14.88c-.87-12.18-10.34-19.23-24.16-19.23S270,37.1,270,49.29C269.9,73.74,304.7,65,304.7,79.54c0,4.84-3.77,8.22-10.15,8.22s-9.86-3.57-10.25-9H269.8c.19,12.76,11,20.11,25,20.11,15.37,0,23.88-9.57,23.88-20.21C318.72,54.89,284.11,62.43,284.11,48.9Z"/><path class="cls-4" d="M55,65.37l3.54,10.21H36l3.53-10.21H28.08L16.67,97.14H28.61l4.45-12.86H61.45L65.9,97.14h12L66.52,65.37Zm46.53,0L81.66,97.14H94.4l13.81-23.7,15.23,23.7h13L116.05,65.37Zm40.88,31.77h11.4V65.37h-11.4ZM310.86,65.37H282.71c2.61,1.06,5.43,1.89,8.23,2.71,7.63,2.21,14.83,4.3,14.83,11.46,0,5.64-4.41,9.29-11.22,9.29-6.28,0-10.4-3.34-11.21-9H270.91c.73,11,10,18,23.93,18,15.67,0,22.81-9.92,22.81-19.14C317.65,72.15,314.85,68.13,310.86,65.37Z"/><path class="cls-2" d="M265.57,72.42c.28,7.31-1.75,15-5.26,22.27-2.35,4.89-5.81,6.53-9.44,4.66s-4.17-5.31-2-10c12.53-26.54-4.65-55.68-33.9-57.43a17.63,17.63,0,0,0-5,.44,4.62,4.62,0,0,0-3.83,5,4.52,4.52,0,0,0,4.16,4.72,40.28,40.28,0,0,0,5.05.28c17.66.76,30.93,18,27,35-1.18,5-3.77,7.09-7.92,6.24-3.8-.78-5.31-3.65-4.51-8.54,1.87-11.4-5.55-19.92-17.54-20.12-13.49-.23-21.12-9.4-18.28-22,1.73-7.68,7.61-12.67,15.64-13.28C240,17.41,265.54,41.12,265.57,72.42Z"/><path class="cls-3" d="M213.78,123.45c-38.63-.11-63.69-40.4-47.05-74.45.33-.69.73-1.34,1.1-2,1.91-3.44,4.7-4.81,8.44-3.21,3.35,1.43,4.47,5.14,2.55,9a41.46,41.46,0,0,0-4.13,25.86c3.13,18.92,21.95,33.86,41,32.4,3.28-.25,5.41-1.8,5.41-5,0-3.8-2.45-5.08-6.13-5.15-14.9-.31-25.68-8.11-29.48-21.09a31,31,0,0,1-.38-15c.83-4.08,4.16-6.14,7.8-5.3,3.42.79,5.31,3.88,4.76,7.77-1.86,13.07,4.74,20.68,18.16,20.9,6.95.11,12.68,2.55,15.88,9a18.17,18.17,0,0,1-1.25,19.23C226.32,122.52,220,123.86,213.78,123.45Z"/></svg>